<?xml version="1.0" encoding="UTF-8" standalone="no"?>
<!-- Created with Inkscape (http://www.inkscape.org/) -->

<svg
   version="1.1"
   id="svg69"
   width="1253.3333"
   height="1253.3333"
   viewBox="0 0 1253.3333 1253.3333"
   sodipodi:docname="macArthurHat.png"
   inkscape:version="1.1.2 (08b2f3d93c, 2022-04-05)"
   xmlns:inkscape="http://www.inkscape.org/namespaces/inkscape"
   xmlns:sodipodi="http://sodipodi.sourceforge.net/DTD/sodipodi-0.dtd"
   xmlns="http://www.w3.org/2000/svg"
   xmlns:svg="http://www.w3.org/2000/svg">
  <defs
     id="defs73" />
  <sodipodi:namedview
     id="namedview71"
     pagecolor="#ffffff"
     bordercolor="#666666"
     borderopacity="1.0"
     inkscape:pageshadow="2"
     inkscape:pageopacity="0.0"
     inkscape:pagecheckerboard="0"
     showgrid="false"
     inkscape:zoom="0.93111708"
     inkscape:cx="648.68319"
     inkscape:cy="626.66663"
     inkscape:window-width="2504"
     inkscape:window-height="1376"
     inkscape:window-x="56"
     inkscape:window-y="27"
     inkscape:window-maximized="1"
     inkscape:current-layer="g75" />
  <g
     inkscape:groupmode="layer"
     inkscape:label="Image"
     id="g75">
    <g
       id="g275"
       transform="translate(3.486567,3.5308106)"
       style="opacity:1">
      <path
         style="fill:#b9c4cb;stroke-width:1.33333"
         d="m 616.68305,1143.7158 c -1.45765,-0.845 -4.58484,-3.4152 -6.94932,-5.7116 -7.50419,-7.288 -28.36935,-17.3802 -53.93405,-26.0874 -13.45649,-4.5832 -30.46636,-10.3791 -37.79969,-12.8799 -33.64064,-11.4717 -53.3064,-19.4464 -76,-30.8188 C 377.53724,1035.914 329.36015,994.21485 284.23518,931.66664 l -8.41684,-11.66666 h -6.26331 c -3.85944,0 -8.0464,1.03302 -10.90917,2.69157 -10.32439,5.9814 -13.28556,6.85747 -17.96207,5.31408 -3.92722,-1.29609 -5.73281,-3.87156 -16.17078,-23.06567 -31.0432,-57.08453 -41.84319,-83.85693 -49.94595,-123.81241 -4.08462,-20.14172 -5.03637,-57.41936 -1.93964,-75.97133 2.08467,-12.4888 10.00235,-38.74716 14.07999,-46.6951 3.49676,-6.81574 11.18796,-9.72823 17.19714,-6.51222 1.31775,0.70524 7.72099,7.45524 14.22943,15 55.94785,64.85633 118.26009,113.45331 166.42709,129.79557 15.20263,5.158 18.71165,7.97428 18.71165,15.01766 0,4.83899 -0.90642,6.33551 -8.77274,14.48387 -10.03271,10.39244 -13.70219,16.81511 -16.50031,28.88039 -5.92185,25.53452 13.44513,52.95995 53.64907,75.97196 30.78291,17.6196 63.82545,28.63994 81.46347,27.16968 12.25243,-1.02132 17.50704,-2.83039 23.75496,-8.17838 8.97972,-7.68632 12.47092,-17.53167 13.89232,-39.17711 1.62126,-24.68899 9.8703,-419.34814 8.82218,-422.0795 -0.76055,-1.98193 -13.65654,-2.16639 -151.46548,-2.16639 H 257.48203 l -3.74102,-3.21789 -3.74102,-3.21788 V 429.99999 379.7691 l 3.74102,-3.21788 3.74102,-3.2179 h 197.92564 c 108.8591,0 197.92565,-0.35769 197.92565,-0.79488 0,-0.43718 -7.5,-13.27949 -16.66667,-28.53845 -9.16667,-15.25896 -16.62063,-28.55127 -16.56436,-29.53845 0.19592,-3.43695 34.01565,-57.79488 35.95811,-57.79488 1.49281,0 2.09314,2.61056 2.60625,11.33333 l 0.66667,11.33334 h 35.33333 c 34.08981,0 35.53089,-0.1056 40.94688,-3 6.30688,-3.37054 11.48018,-3.95494 10.81754,-1.222 -0.23709,0.97789 -9.13109,16.93289 -19.76442,35.45554 -12.76202,22.23071 -20.69292,34.65571 -23.33334,36.55535 -3.54908,2.55336 -6.25461,2.95293 -23.99999,3.54444 l -20,0.66666 -0.38726,11 -0.38725,11 h 165.26871 165.26873 l 3.25086,3.86342 c 2.98497,3.54745 3.3124,5.31942 4.00357,21.66666 0.41399,9.79179 0.59033,31.30326 0.39187,47.80325 -0.37934,31.53594 -1.08171,35.6643 -6.55652,38.53746 -2.05034,1.07601 -45.1945,1.586 -153.39047,1.81316 l -150.53774,0.31605 -0.38313,11.33333 c -0.35737,10.57154 2.34625,147.28599 6.73694,340.66666 1.73926,76.60293 2.07744,83.30237 4.61046,91.33333 3.38974,10.74728 6.60034,16.05457 12.33104,20.38385 5.69168,4.29983 16.98584,7.61615 25.93772,7.61615 14.56304,0 39.37185,-7.85365 64.53505,-20.42966 22.43648,-11.21326 34.3838,-19.37643 47.55566,-32.49311 12.11687,-12.06611 18.3321,-22.51421 20.55902,-34.56075 2.7048,-14.63157 -4.25259,-32.67684 -17.6049,-45.66157 -9.0795,-8.82956 -10.63817,-13.38474 -6.72658,-19.65834 2.13418,-3.42291 4.84666,-4.9115 15.71841,-8.62612 42.23985,-14.4324 87.88445,-46.90762 137.85852,-98.08356 9.92897,-10.16779 23.23187,-24.51025 29.56187,-31.87216 6.33,-7.36189 13.0084,-14.18765 14.8409,-15.16835 5.2707,-2.82084 12.4752,-0.83834 15.5998,4.29264 4.505,7.39814 10.7847,26.34966 14.2242,42.92765 3.0687,14.79087 3.2688,17.96486 2.6478,42 -0.92,35.60679 -6.2996,61.18187 -20.4235,97.095 -10.1363,25.77383 -42.3988,86.585 -47.3623,89.2728 -4.1279,2.23532 -9.16179,1.20563 -15.89752,-3.25187 -3.87561,-2.56476 -7.6994,-3.78981 -13.03121,-4.1749 l -7.5461,-0.54502 -16.8736,22.46867 c -41.18541,54.84194 -85.55983,92.71811 -144.45972,123.30481 -18.55984,9.6381 -33.56971,16.3727 -50.66667,22.733 -9.83705,3.6595 -79.44966,27.8215 -87.53473,30.3826 -8.21084,2.601 -28.09295,14.0022 -35.07971,20.1162 -7.91897,6.9297 -13.00481,8.2842 -18.70249,4.9812 z M 536.99728,348.77664 c -6.90432,-2.48092 -13.75891,-7.9699 -18.04976,-14.45382 -3.26319,-4.931 -3.6142,-6.63632 -3.6142,-17.55879 0,-11.91424 0.0953,-12.27106 6.29833,-23.57173 3.46408,-6.31089 7.13735,-12.17068 8.16282,-13.02173 1.33868,-1.11102 12.15878,-1.44726 38.36833,-1.19231 l 36.50385,0.35507 v 35.33333 35.33333 l -31.33333,0.28713 c -23.52872,0.21562 -32.57943,-0.16062 -36.33604,-1.51048 z m -29.96976,-29.06558 c -0.75499,-0.94108 -9.97987,-16.41107 -20.49973,-34.37773 -23.77786,-40.60972 -23.41996,-38.36484 -9.86722,-61.89243 10.34503,-17.95896 10.59406,-15.54243 -2.42705,-23.55173 -3.53823,-2.17636 -6.18939,-4.69176 -5.89148,-5.58978 0.39749,-1.19817 9.38467,-1.86408 33.76647,-2.50193 29.83721,-0.78057 33.45165,-0.64463 35.4496,1.33333 2.78478,2.75694 31.76302,54.93276 31.77005,57.20254 0.009,2.80761 -5.01408,1.86672 -12.45619,-2.33334 -3.89817,-2.2 -7.63909,-3.99444 -8.31313,-3.98765 -0.67404,0.007 -3.36695,3.75679 -5.98424,8.33333 -2.61731,4.57655 -9.68871,16.85623 -15.71424,27.28819 -11.84539,20.50784 -14.74837,27.27887 -15.22151,35.50329 -0.31932,5.55053 -2.27313,7.48849 -4.61133,4.57391 z m 190.69107,-46.33207 c -4.38149,-4.81448 -35.33302,-60.05668 -34.6485,-61.84052 0.37112,-0.96712 13.72119,-9.14969 29.6668,-18.1835 22.49896,-12.74653 29.46748,-16.12521 31.11492,-15.08604 2.2685,1.43093 3.70642,3.7486 20.98629,33.82638 l 11.16188,19.42866 -0.012,10.57134 c -0.0107,9.21871 -0.50836,11.43582 -3.88765,17.3274 -4.23208,7.37836 -10.24928,12.60371 -17.2988,15.02231 -2.49328,0.85524 -11.31991,1.55497 -19.61524,1.55497 -13.297,0 -15.36479,-0.31026 -17.4677,-2.621 z M 546.86584,180.0404 c -27.08685,-15.94595 -32.19919,-19.3864 -32.19919,-21.66907 0,-0.85185 6.15,-12.36356 13.66667,-25.58155 15.65413,-27.52767 22.35472,-35.471384 31.96068,-37.890191 11.4425,-2.881257 23.11254,-1.018662 31.63361,5.048876 5.63905,4.015355 20.07971,26.311905 20.06805,30.985315 -0.003,0.95309 -7.97169,15.53288 -17.7096,32.39955 -13.07402,22.64505 -18.39157,30.72477 -20.32901,30.88884 -1.44305,0.12213 -13.6341,-6.25961 -27.09121,-14.18177 z m 69.66736,-1.58967 c -1.12698,-1.82347 1.94164,-4.37889 11.36608,-9.46527 l 6.82082,-3.6812 -2.20706,-4.3188 c -1.21388,-2.37533 -8.46012,-15.1188 -16.10276,-28.3188 -10.24718,-17.69841 -15.80124,-25.82277 -21.153,-30.94213 -3.99151,-3.818174 -7.2573,-7.568174 -7.2573,-8.333334 0,-0.936473 13.66931,-1.391198 41.82019,-1.391198 40.43893,0 41.93753,0.09229 45.37281,2.794498 1.95395,1.536973 7.56663,9.636974 12.47262,18.000004 4.90598,8.36302 9.53822,15.20395 10.29385,15.20207 0.75562,-0.002 4.85392,-2.10189 9.1073,-4.66667 8.35282,-5.03672 9.64315,-5.4173 10.98823,-3.24092 0.85053,1.37621 -26.94661,52.86084 -31.08686,57.57768 -1.84918,2.10671 -5.32268,2.33334 -35.76276,2.33334 -24.17095,0 -33.98571,-0.43856 -34.67216,-1.54927 z"
         id="path289" />
      <path
         style="fill:#92a4ae;stroke-width:1.33333"
         d="m 610.36368,1136.9162 c -13.06679,-10.7106 -26.23726,-16.7649 -65.69703,-30.2001 -42.54065,-14.4842 -68.81752,-23.8985 -70.66666,-25.3179 -0.73334,-0.5629 -4.33334,-2.1371 -8,-3.4982 -15.621,-5.7987 -50.60781,-24.8951 -72.66667,-39.6628 -38.31393,-25.6498 -80.15377,-67.51176 -109.48271,-109.54049 l -7.18395,-10.29469 -8.17791,0.51894 c -6.23321,0.39554 -9.56238,1.43895 -14,4.38784 -6.17965,4.10651 -12.87269,5.02559 -16.24093,2.23019 -1.10076,-0.91355 -6.53647,-9.94471 -12.07935,-20.06924 -39.93858,-72.95116 -52.29127,-110.35274 -53.76929,-162.8031 -0.82694,-29.34596 0.83032,-41.29571 9.24476,-66.65932 6.1351,-18.49304 9.98643,-24.00735 16.76728,-24.00735 4.16975,0 6.58851,2.29792 29.58877,28.11058 17.17451,19.27454 61.30176,60.84347 77.33334,72.84985 29.7803,22.3031 50.38435,34.23218 75.48197,43.70162 16.096,6.07311 21.85136,10.13104 21.85136,15.40676 0,1.42274 -3.75,6.67836 -8.33334,11.67916 -14.8539,16.20687 -21.00744,32.13775 -18.27121,47.30236 4.56224,25.28468 27.50789,47.93593 69.63949,68.74599 28.28925,13.97289 52.39931,21.05637 67.41061,19.80506 14.11624,-1.17669 18.82494,-3.11044 26.3462,-10.8198 8.81263,-9.03302 11.05695,-15.70064 12.60511,-37.44825 1.62521,-22.82996 9.94991,-420.97114 8.86136,-423.80784 -0.77367,-2.01615 -12.98284,-2.19215 -152.06866,-2.19215 -146.91103,0 -151.31732,-0.0728 -154.37519,-2.54887 l -3.1477,-2.54885 v -50.23561 -50.23561 l 3.15066,-2.55126 c 3.08832,-2.50076 10.39352,-2.5446 369.18945,-2.21552 l 366.03876,0.33572 2.60624,3.49079 c 2.41139,3.2298 2.63723,6.22039 3.02077,40 0.51364,45.23924 -0.23438,59.00592 -3.41994,62.94018 l -2.35002,2.90236 -152.41705,0.66667 -152.41704,0.66667 -0.29902,13.33333 c -0.16446,7.33333 1.15051,80.23333 2.92215,162 1.77164,81.76666 3.58836,168.46666 4.03713,192.66666 1.39011,74.9594 2.57084,82.56425 14.73119,94.88025 7.52168,7.61794 12.26977,9.56874 26.09448,10.72113 15.53169,1.29469 41.04889,-6.40488 70.13153,-21.1615 40.70072,-20.65168 62.55428,-42.55143 67.12277,-67.26467 2.71807,-14.70343 -5.1816,-35.09807 -18.20544,-47.00113 -8.60659,-7.86592 -10.174,-12.48431 -6.02651,-17.75699 1.53187,-1.94745 5.62876,-4.5614 9.1042,-5.80876 31.47194,-11.29552 54.05943,-23.78886 84.83072,-46.92065 25.33064,-19.04187 61.13734,-53.26177 88.60684,-84.68021 14.5076,-16.59308 18.0499,-18.87399 24.1224,-15.53237 6.4215,3.53365 15.4525,27.50118 19.4736,51.68114 3.0992,18.63644 2.1313,55.83689 -1.9821,76.17709 -7.2828,36.01309 -17.6781,63.38972 -39.728,104.62592 -5.5017,10.28908 -12.0897,22.60741 -14.6398,27.37408 -7.1831,13.42629 -11.9882,16.79464 -18.51719,12.98035 -11.41428,-6.66836 -14.08666,-7.6445 -20.79435,-7.59546 l -7.05312,0.0516 -6.66667,9.45358 c -17.07478,24.21267 -29.97474,39.48755 -51.49423,60.97451 -20.15254,20.12211 -23.29048,22.91301 -40.50576,36.02681 -22.11022,16.8424 -41.01656,28.6842 -65.95223,41.3085 -26.45112,13.3915 -38.53034,18.1087 -99.97426,39.0424 -46.02796,15.6816 -60.24583,22.4695 -72.56505,34.6444 -6.00402,5.9336 -10.78708,5.1863 -21.14476,-3.3037 z m 27.20696,-793.61832 c -9.03056,-15.05281 -16.22828,-28.1646 -15.99494,-29.13728 0.96958,-4.04147 32.56067,-55.44009 34.09095,-55.46587 1.18527,-0.02 1.66667,2.8132 1.66667,9.80868 0,6.94474 0.56569,10.30621 1.92412,11.43361 1.4158,1.17501 11.01437,1.48232 36.33333,1.16325 32.69204,-0.41197 34.68936,-0.58333 40.02276,-3.43361 6.33976,-3.38811 8.38645,-3.72596 8.38645,-1.38437 0,3.0001 -36.17147,64.71637 -40.18663,68.56698 -3.9591,3.79685 -4.08582,3.81973 -23.55186,4.25436 -10.96009,0.24471 -20.30984,1.04985 -21.24976,1.82992 -1.05128,0.87248 -1.67841,4.81936 -1.67841,10.56303 0,6.46202 -0.4937,9.17008 -1.67175,9.17008 -0.91945,0 -9.06039,-12.31595 -18.09093,-27.36878 z m -100.76731,4.06643 c -7.2848,-2.59613 -17.85044,-13.35633 -19.65232,-20.0142 -0.79636,-2.94256 -1.16336,-9.37053 -0.81554,-14.28437 0.53538,-7.56373 1.63197,-10.73404 7.14845,-20.66667 l 6.51607,-11.73241 36.99999,-0.35443 37,-0.35442 v 34.68775 34.68776 l -31,-0.0585 c -22.94562,-0.0433 -32.35018,-0.53971 -36.19665,-1.91049 z m -31.18549,-32.36432 c -1.41005,-2.01666 -10.28345,-16.86666 -19.71868,-33 -21.47904,-36.7271 -21.28391,-35.33438 -8.14619,-58.13946 4.90252,-8.51006 8.91368,-16.0476 8.91368,-16.75011 0,-0.70252 -3.6,-3.3022 -8,-5.77709 -4.4,-2.4749 -8,-5.20316 -8,-6.06284 0,-2.22358 64.00848,-3.63804 66.21498,-1.46324 1.62152,1.59824 28.97771,50.47718 30.51674,54.52608 1.34136,3.5289 -2.35828,2.94313 -10.5264,-1.66667 -3.89817,-2.2 -7.73722,-4 -8.5312,-4 -0.79398,0 -3.96226,4.35 -7.04065,9.66667 -29.18344,50.40276 -30.57131,53.18652 -30.902,61.98309 -0.19969,5.3116 -1.42215,5.4864 -4.78028,0.68357 z M 698.3641,272.33333 c -2.86488,-3.26214 -34.36412,-58.21012 -34.36412,-59.94555 0,-1.95997 57.04537,-34.11692 59.11407,-33.32309 1.39786,0.53641 9.6494,14.18974 28.43662,47.05245 2.52426,4.41543 3.11598,7.40061 3.11598,15.71979 0,11.65973 -2.26012,17.4412 -9.54983,24.42882 -7.19807,6.89978 -12.47541,8.40091 -29.53403,8.40091 -12.77762,0 -15.49262,-0.36792 -17.21869,-2.33333 z M 544.7366,177.41677 c -14.6282,-8.61067 -27.18065,-16.58147 -27.89433,-17.71289 -0.9818,-1.55647 1.91725,-7.69302 11.91166,-25.21384 15.27604,-26.77984 23.04239,-36.117376 31.89386,-38.346203 12.36409,-3.113315 23.3315,-0.855748 31.67446,6.519973 6.97975,6.17055 18.94657,25.55613 18.00309,29.164 -0.3679,1.40687 -8.31841,15.82116 -17.66778,32.03173 -11.5535,20.03222 -17.69167,29.43201 -19.16156,29.34339 -1.18947,-0.0717 -14.1312,-7.17548 -28.7594,-15.78616 z m 73.93005,-0.66025 c 0,-1.05059 1.09248,-2.2569 2.42772,-2.68068 1.33524,-0.42379 5.252,-2.56163 8.70388,-4.75076 l 6.27617,-3.98023 -2.23416,-4.33909 c -11.06748,-21.49488 -32.16474,-55.79234 -37.24936,-60.55564 -3.25834,-3.052435 -5.92425,-5.902435 -5.92425,-6.333335 0,-0.430899 18.16649,-0.783454 40.36999,-0.783454 34.31689,0 40.8127,0.310085 43.32256,2.068052 1.6239,1.137429 7.18032,9.237427 12.34758,17.999997 5.16727,8.76257 10.12212,15.93041 11.01079,15.92852 0.88865,-0.002 5.15193,-2.1357 9.47393,-4.74181 4.322,-2.60611 8.36385,-4.23272 8.98188,-3.61469 0.90313,0.90313 -21.16185,42.55894 -28.97089,54.69326 -1.91745,2.97951 -2.15815,3 -35.23324,3 -28.0172,0 -33.3026,-0.30316 -33.3026,-1.91014 z"
         id="path287" />
      <path
         style="fill:#728895;stroke-width:1.33333"
         d="m 620.01316,1143.0102 c -1.09275,-0.4286 -5.31152,-3.5461 -9.37504,-6.9278 -12.08858,-10.0602 -27.55732,-17.0359 -69.87068,-31.5087 -58.50245,-20.0102 -69.20877,-24.2126 -97.43412,-38.2448 -41.87853,-20.8198 -71.92528,-42.1965 -104.75988,-74.53139 -23.8546,-23.49154 -39.05381,-41.42474 -55.76639,-65.79753 -5.61934,-8.19495 -6.23584,-8.62083 -12.51655,-8.64626 -5.68859,-0.0231 -12.78187,2.59935 -17.88159,6.61078 -3.85833,3.03497 -10.8603,3.55552 -13.92829,1.03548 -2.26816,-1.86307 -17.68791,-29.94531 -30.93221,-56.33334 -13.7112,-27.31824 -23.62991,-54.0067 -28.08204,-75.56086 -1.15308,-5.58243 -2.99587,-13.96496 -4.09507,-18.62784 -2.86386,-12.14865 -2.83249,-61.51809 0.0471,-74.06189 5.89827,-25.69372 12.59858,-43.06352 17.79584,-46.1336 6.22164,-3.67521 10.61608,-1.10213 23.07536,13.51131 6.03641,7.08009 19.3907,21.49844 29.6762,32.04078 49.35036,50.58272 93.64421,82.54549 136.03422,98.16327 22.71273,8.36808 24.42456,12.68688 10.78493,27.20958 -9.43873,10.04984 -12.74429,15.65585 -16.16052,27.40725 -8.64788,29.74766 16.05787,61.56511 68.04225,87.62868 36.27204,18.18581 65.12908,24.03599 83.90676,17.01036 14.2264,-5.32277 23.09334,-20.19998 24.15571,-40.52914 0.30824,-5.89851 1.21231,-50.32456 2.00904,-98.72456 0.79672,-48.4 1.99472,-91 2.66223,-94.66667 0.6675,-3.66666 1.86233,-58.50849 2.65516,-121.8707 1.18604,-94.78704 1.13162,-115.40057 -0.30703,-116.31292 -0.96169,-0.60988 -69.60555,-1.11806 -152.54188,-1.12929 L 256.41333,484 l -2.53999,-2.80463 c -2.37158,-2.61867 -2.56721,-5.73471 -2.95068,-47 -0.22588,-24.30745 -0.0361,-46.21241 0.42171,-48.67768 0.45781,-2.46526 2.26535,-5.91526 4.01675,-7.66666 l 3.18436,-3.18436 h 364.49484 364.49484 l 3.23243,3.44074 3.23241,3.44076 v 48.41927 c 0,45.64196 -0.14482,48.57929 -2.52489,51.20924 l -2.52491,2.78998 -151.69751,0.35 c -83.43364,0.1925 -152.16529,0.81787 -152.73701,1.3897 -0.57173,0.57184 0.60003,77.37184 2.60391,170.66666 2.00386,93.29484 3.64787,185.82697 3.65335,205.62697 0.0163,58.55597 2.40847,74.05962 13.34464,86.48378 15.75603,17.89979 50.19875,15.07524 96.27483,-7.89521 31.6221,-15.76467 55.70506,-36.03372 64.87732,-54.603 4.19165,-8.48604 4.60873,-10.39139 4.66666,-21.31891 0.0593,-11.18384 -0.27692,-12.71321 -4.9433,-22.48629 -3.6092,-7.55896 -7.23826,-12.63601 -13,-18.18704 -13.27804,-12.79241 -11.12982,-17.71684 11.34025,-25.9955 31.76844,-11.70447 64.98084,-32.83927 100.30213,-63.82755 17.98529,-15.77896 51.01003,-49.29934 65.69783,-66.68389 5.5,-6.5098 11.7579,-12.58852 13.9064,-13.50825 5.0525,-2.16284 10.1939,-0.42974 13.0329,4.39325 3.8007,6.45667 11.7243,31.05721 14.013,43.50609 2.6912,14.63841 3.7758,46.90819 1.8862,56.12252 -0.7519,3.66667 -2.0797,12.06667 -2.9507,18.66667 -3.3052,25.04733 -16.3079,62.57387 -33.0321,95.33333 -12.862,25.19404 -28.0735,52.43256 -29.9465,53.62365 -3.2602,2.07331 -8.95163,0.90647 -15.53242,-3.18437 -4.72682,-2.93836 -8.97329,-4.40758 -13.92637,-4.81832 l -7.12595,-0.59094 -11.78956,15.81832 c -20.95593,28.11703 -27.25882,35.44733 -49.74965,57.85921 -25.22609,25.13756 -44.87124,40.47776 -76.11854,59.43836 -21.30088,12.9252 -50.97799,27.1585 -76.66667,36.7697 -10.06342,3.7652 -79.89639,28.0061 -87.55711,30.3935 -8.05354,2.5098 -25.33512,12.6249 -33.18714,19.4247 -8.08973,7.0057 -10.29506,7.9554 -14.5759,6.2764 z m 18.80352,-798.97917 c -8.88251,-14.77789 -16.15003,-27.88112 -16.15003,-29.11829 0,-2.80613 31.22525,-55.14888 32.82929,-55.0316 0.6439,0.0471 1.47071,4.74309 1.83738,10.43556 l 0.66666,10.34996 h 36.04771 c 32.3019,0 36.61948,-0.25804 41.55014,-2.48328 3.02634,-1.36581 6.1525,-2.26581 6.94702,-2 0.79453,0.2658 -7.1785,15.48328 -17.71783,33.81661 -15.27105,26.56425 -20.07604,33.87487 -23.6614,36 -3.76127,2.22941 -7.66908,2.77599 -23.8323,3.33333 l -19.33334,0.66667 -0.40124,9.33333 c -0.22066,5.13334 -0.90316,9.83582 -1.51662,10.44998 -0.61348,0.61414 -8.38292,-10.97438 -17.26544,-25.75227 z m -100.62993,3.13915 c -9.71487,-3.00299 -18.74838,-12.57632 -20.88771,-22.13591 -2.2614,-10.10496 -0.80159,-17.97998 5.59128,-30.1626 8.59624,-16.38146 4.22668,-14.96777 45.0023,-14.55969 l 35.4407,0.35468 v 34 34 l -29.33334,0.25328 c -22.89466,0.19768 -30.75567,-0.1864 -35.81323,-1.74976 z m -40.60976,-46.83685 c -30.47246,-51.93948 -30.06859,-51.10778 -28.16486,-58.00256 0.73027,-2.64482 5.18607,-11.57011 9.90179,-19.83399 6.25157,-10.95536 8.19867,-15.47749 7.18831,-16.69491 -0.76215,-0.91832 -4.71036,-3.546 -8.77382,-5.83926 -4.06346,-2.29328 -6.86468,-4.66476 -6.22493,-5.26995 0.63975,-0.6052 15.091,-1.30863 32.11388,-1.56319 26.18807,-0.3916 31.24785,-0.15505 32.88165,1.53719 3.03371,3.14223 30.4468,53.16396 29.94783,54.64696 -0.24578,0.73044 -4.34685,-0.74341 -9.11352,-3.27525 -4.76667,-2.53184 -9.05173,-4.62623 -9.52237,-4.65419 -0.74671,-0.0444 -19.78202,32.04608 -31.61174,53.29228 -2.24873,4.03873 -4.76321,10.48873 -5.58773,14.33333 -0.82452,3.84462 -2.02651,6.9902 -2.67107,6.9902 -0.64456,0 -5.3081,-7.05 -10.36342,-15.66666 z m 201.98004,-27.63342 c -3.58468,-3.58469 -34.40149,-58.1293 -33.97533,-60.1351 0.62224,-2.92872 56.02979,-33.9938 57.885,-32.45411 1.49335,1.23936 21.16389,34.61736 27.75015,47.08788 4.79354,9.0762 4.78556,20.26399 -0.0213,29.91024 -6.40517,12.85341 -16.21205,17.55784 -36.60126,17.55784 -9.7422,0 -13.57127,-0.50081 -15.03722,-1.96675 z m -153.55704,-95.4567 c -13.93334,-8.09173 -26.37107,-15.73611 -27.6394,-16.98749 -2.18224,-2.1531 -1.56764,-3.56338 11.44662,-26.2655 16.51326,-28.80577 21.13687,-34.189015 32.08794,-37.359716 6.64041,-1.922621 8.99723,-2.039283 14.82961,-0.734053 11.32369,2.53413 17.69977,7.612249 25.68121,20.453349 3.88996,6.25843 7.15708,12.49978 7.26027,13.86965 0.29378,3.90013 -33.6077,61.78466 -36.17024,61.75828 -1.18947,-0.012 -13.56268,-6.64279 -27.49601,-14.73452 z m 73.40851,0.21177 c -0.41186,-0.66641 3.00272,-3.2698 7.58798,-5.78529 4.58526,-2.51549 8.50222,-5.42171 8.70437,-6.45825 0.63863,-3.27478 -29.57723,-54.69782 -36.83696,-62.69121 -3.73629,-4.113871 -6.40916,-7.863871 -5.93969,-8.333333 0.46945,-0.469461 18.07265,-0.853566 39.1182,-0.853566 36.73244,0 38.40576,0.111013 41.78925,2.772468 1.93855,1.524857 7.74237,9.924861 12.89739,18.666661 5.15502,8.74181 9.74219,15.8942 10.19373,15.8942 0.45152,0 4.6739,-2.1547 9.38308,-4.78822 4.70917,-2.63352 8.89277,-4.45758 9.29688,-4.05347 0.79778,0.79778 -26.63955,50.68684 -29.97779,54.50836 -1.83417,2.09969 -5.21385,2.33333 -33.75292,2.33333 -17.58201,0 -32.04836,-0.53994 -32.46352,-1.21168 z"
         id="path285" />
      <path
         style="fill:#5f7987;stroke-width:1.33333"
         d="m 611.19438,1136.1061 c -12.0641,-10.2947 -27.77012,-17.6466 -63.86106,-29.8931 -18.33333,-6.2209 -40.83333,-14.0256 -50,-17.3439 -91.19416,-33.0118 -154.99114,-81.1745 -211.76481,-159.86912 l -8.41684,-11.66667 h -7.64813 c -6.14097,0 -8.84432,0.7586 -13.71824,3.84955 -14.07276,8.92468 -15.18717,8.22485 -29.82516,-18.72938 -30.34945,-55.88516 -39.83586,-79.86653 -49.49429,-125.12017 -1.91577,-8.97621 -2.42211,-17.4341 -2.43448,-40.66666 -0.0147,-27.43482 0.21135,-30.1963 3.49116,-42.66667 5.75819,-21.89349 11.90977,-36.93308 16.05337,-39.24774 5.79319,-3.23615 9.83773,-0.67228 23.00649,14.58397 58.6941,67.99816 121.71988,115.78481 175.7468,133.2526 5.2868,1.70932 9.00413,5.73896 9.00413,9.76062 0,1.33252 -3.8519,6.52407 -8.5598,11.53676 -9.70585,10.33424 -14.36652,18.62472 -17.51368,31.15365 -2.67038,10.63086 -1.36054,18.65196 5.32339,32.59899 4.72221,9.8536 19.18963,25.9692 29.47848,32.83679 2.89939,1.93529 7.63017,5.09741 10.51285,7.02696 17.94334,12.01046 53.73548,27.46337 74.04113,31.96653 22.78547,5.0531 42.63251,-1.07982 51.28523,-15.84766 7.47553,-12.75865 7.34279,-10.76197 10.74483,-161.62147 5.83484,-258.73909 6.43808,-290.82298 5.53562,-294.41866 l -0.89885,-3.58133 H 409.56276 c -128.88646,0 -152.10926,-0.28466 -154.30793,-1.89144 -2.46737,-1.80316 -2.6059,-4.15668 -2.96826,-50.42741 -0.37303,-47.63364 -0.32784,-48.60239 2.4301,-52.10856 l 2.8102,-3.57259 h 365.13978 365.13978 l 2.76344,3.51315 c 2.67841,3.40504 2.76344,4.9768 2.76344,51.08192 0,46.0287 -0.088,47.66323 -2.71862,50.48685 l -2.7186,2.91808 h -151.2027 c -119.51634,0 -151.42153,0.34926 -152.24693,1.66666 -0.57432,0.91667 -1.19249,7.96667 -1.3737,15.66667 -0.57502,24.43228 8.78525,420.45932 10.05291,425.33332 5.17823,19.90949 12.71798,28.55897 28.57467,32.78041 16.77724,4.46652 39.37869,-0.14893 70.94503,-14.48772 45.31419,-20.58365 73.18545,-46.85621 78.14001,-73.6579 2.73282,-14.78317 -3.91732,-32.18059 -18.05496,-47.23356 -4.80175,-5.11261 -8.73044,-10.38592 -8.73044,-11.71844 0,-4.34708 3.87325,-8.09304 10.71917,-10.36689 12.28143,-4.07924 31.00632,-12.59008 44.55777,-20.2524 40.52266,-22.91251 85.72073,-62.10785 129.23188,-112.06865 7.7821,-8.93569 14.4069,-15.34119 16.3779,-15.83589 7.9246,-1.98894 11.3734,2.7304 19.1279,26.17438 6.4998,19.651 8.4305,35.67123 7.6114,63.15624 -1.5418,51.72879 -13.9781,89.58752 -52.6171,160.17709 -11.926,21.78761 -11.9727,21.85644 -15.4112,22.71944 -3.313,0.83153 -6.76361,-0.41968 -14.93106,-5.41417 -3.94123,-2.41011 -7.25549,-3.26712 -12.69733,-3.28334 l -7.36402,-0.0219 -16.8332,22.33333 c -42.93131,56.95883 -87.80987,94.78773 -149.72691,126.20733 -10.97515,5.5693 -20.46231,10.126 -21.08257,10.126 -0.62027,0 -4.2406,1.4608 -8.0452,3.2463 -8.12571,3.8133 -43.99027,16.7398 -81.5841,29.405 -14.66666,4.9411 -30.26666,10.7867 -34.66666,12.9901 -8.93723,4.4757 -22.66244,13.888 -26.53999,18.2004 -4.39608,4.8891 -10.15726,3.7523 -18.93228,-3.7357 z m 42.67714,-768.22036 c -3.1942,-4.1206 -31.20487,-51.71527 -31.20487,-53.02215 0,-1.44216 29.90889,-51.87466 32.10185,-54.13026 0.75638,-0.77799 1.23148,2.40024 1.23148,8.23809 0,14.64921 -1.98718,13.96681 39.19169,13.45836 33.42924,-0.41276 35.03794,-0.55233 40.60419,-3.5228 3.18772,-1.70116 6.12047,-2.76841 6.5172,-2.37168 1.09475,1.09473 -35.40735,64.1081 -39.2054,67.68008 -3.10149,2.91689 -4.63443,3.16093 -23.77232,3.78461 -11.25137,0.36667 -20.95466,1.16468 -21.56286,1.77336 -0.6082,0.60869 -1.40583,5.35728 -1.7725,10.55241 -0.50778,7.19458 -1.01505,8.99631 -2.12846,7.55998 z M 536.81101,346.03362 c -7.22512,-2.575 -16.535,-12.0633 -18.32457,-18.67574 -0.79752,-2.94684 -1.16811,-9.34133 -0.82352,-14.20997 0.52092,-7.3601 1.68133,-10.78717 6.88495,-20.33333 l 6.25844,-11.48125 h 35.93017 35.93017 v 33.33333 33.33333 l -30.33333,-0.0585 c -22.35548,-0.0432 -31.69807,-0.54491 -35.52231,-1.90786 z m -31.13285,-33.03363 c -0.72327,-0.91666 -9.02928,-14.86666 -18.45783,-31 -21.46458,-36.72841 -21.26997,-35.33744 -8.13402,-58.13946 4.90252,-8.51006 8.91368,-16.15492 8.91368,-16.98862 0,-0.83368 -3.29999,-3.37818 -7.3333,-5.65444 -4.0333,-2.27626 -7.66872,-4.68138 -8.07869,-5.34473 -0.63781,-1.03201 15.85772,-1.56764 56.20753,-1.82513 l 7.46223,-0.0476 14.51144,26 c 13.20181,23.65352 15.88886,29.33333 13.87725,29.33333 -0.37777,0 -3.87629,-1.8 -7.77448,-4 -3.89817,-2.2 -7.93909,-3.98705 -8.9798,-3.97124 -1.0407,0.0159 -4.33194,4.36583 -7.31386,9.66667 -2.98192,5.30085 -10.63862,18.69245 -17.01487,29.75913 -6.6128,11.47724 -12.29515,23.07632 -13.22719,27 -1.70082,7.16006 -2.45516,8.00413 -4.65809,5.21211 z M 696.9141,268.33333 C 685.98312,250.81193 665.26034,213.19675 665.93613,212.10331 666.93458,210.48778 720.46102,180 722.29891,180 c 1.10814,0 9.11558,13.22709 27.91843,46.11714 4.13752,7.23737 4.43647,23.42192 0.57141,30.93597 -6.48489,12.60732 -14.47038,16.28022 -35.39589,16.28022 H 700.03343 Z M 544.73825,176.08441 c -14.62728,-8.61013 -26.83314,-16.36905 -27.12414,-17.24204 -0.88838,-2.66512 26.56309,-49.12774 32.42537,-54.88113 4.20941,-4.131229 7.12513,-5.679653 13.02532,-6.917229 9.65592,-2.025352 20.59297,0.02815 27.2685,5.119819 4.83447,3.68744 17.13312,21.52409 18.51492,26.85208 0.58294,2.24769 -2.87522,9.37999 -13.57604,28.00001 -18.47792,32.15263 -20.30548,35.01043 -22.28892,34.85367 -0.90748,-0.0717 -13.61771,-7.17505 -28.24501,-15.78518 z m 75.26173,0.72031 c 0,-0.31638 3.9,-2.75622 8.66667,-5.4219 4.76667,-2.66566 8.66667,-5.1471 8.66667,-5.51429 0,-3.50747 -33.61351,-59.87116 -39.0831,-65.5352 l -5.47213,-5.666666 h 39.67156 c 46.61137,0 40.88943,-2.213772 54.2516,20.989456 4.74764,8.2442 9.45902,14.9942 10.46976,15 1.01073,0.006 5.09633,-1.85386 9.0791,-4.13257 3.98279,-2.27871 7.58054,-3.80399 7.99503,-3.38951 0.41448,0.41449 -5.88415,12.62889 -13.99695,27.14312 l -14.75055,26.3895 -32.74883,0.35663 c -18.01185,0.19615 -32.74883,0.0978 -32.74883,-0.21857 z"
         id="path283" />
      <path
         style="fill:#496676;stroke-width:1.33333"
         d="m 611.69701,1135.5829 c -13.07005,-10.7133 -26.47521,-16.9504 -63.03992,-29.3307 -40.30097,-13.6455 -65.58797,-22.7632 -75.02996,-27.0535 -3.87172,-1.7593 -7.50136,-3.1987 -8.06584,-3.1987 -1.41296,0 -42.22517,-20.8344 -49.28526,-25.1599 -37.85412,-23.1917 -59.96199,-41.3455 -92.69008,-76.11197 -13.87774,-14.74209 -31.61893,-36.74566 -40.90141,-50.72815 -1.70393,-2.56667 -4.01968,-5.41667 -5.14613,-6.33334 -4.53314,-3.6889 -17.34658,-1.15752 -25.1295,4.96452 -3.39884,2.67354 -10.44292,3.57544 -13.13461,1.68174 -1.46248,-1.02892 -17.89185,-30.94094 -30.39028,-55.32982 -21.5049,-41.96374 -33.81024,-85.73079 -35.16524,-125.07414 -0.92113,-26.74577 1.18915,-42.01532 9.10875,-65.90896 5.86681,-17.7003 7.84424,-21.45198 12.4013,-23.52833 4.68296,-2.13369 8.2271,0.46115 22.11968,16.195 39.82771,45.10629 86.23976,86.35889 120.05389,106.70796 14.2531,8.5774 35.01086,18.64546 47.9246,23.2447 17.7208,6.31128 19.0092,10.57615 6.9701,23.07228 -18.83264,19.54756 -23.34439,41.29697 -12.98836,62.61197 4.58273,9.43227 14.19186,21.56799 21.13181,26.68812 2.23375,1.648 4.39843,3.51231 4.8104,4.1429 1.47061,2.25101 18.49817,13.21392 30.85101,19.86289 48.47655,26.09278 85.33021,31.36085 103.32873,14.7704 9.60163,-8.85047 12.75896,-17.34155 14.03918,-37.75587 1.60196,-25.54456 9.83808,-425.08431 8.81753,-427.74381 -0.81233,-2.11694 -10.95612,-2.2682 -152.09785,-2.2682 -146.9029,0 -151.31748,-0.0729 -154.37518,-2.54848 l -3.14771,-2.54848 v -48.9022 -48.9022 l 3.14771,-2.54932 c 3.08225,-2.49631 10.72413,-2.54932 367.46001,-2.54932 h 364.31229 l 2.53998,2.80505 c 2.3821,2.63068 2.56366,5.7674 2.92074,50.4604 0.36388,45.54484 0.26576,47.79736 -2.21536,50.86163 l -2.59611,3.20625 -152.4513,0.66667 -152.4513,0.66666 0.37077,46.66667 c 0.20392,25.66667 2.11567,124.36666 4.24833,219.33333 4.13768,184.24969 3.99993,181.8027 10.85871,192.90043 11.9322,19.30671 38.0639,23.05356 72.85908,10.4468 31.63994,-11.46359 62.52277,-29.6037 79.47182,-46.68057 15.86853,-15.98821 23.28221,-35.73011 19.59875,-52.18957 -2.68387,-11.99278 -10.05028,-25.03891 -18.14767,-32.14002 -5.80715,-5.09266 -7.22945,-7.14744 -7.24297,-10.46375 -0.0228,-5.5984 2.62386,-7.61643 16.64093,-12.68823 32.09193,-11.61183 66.01969,-33.09119 101.64437,-64.35013 20.90461,-18.34279 71.46096,-70.38257 73.45886,-75.61423 0.2352,-0.61588 2.4212,-2.35194 4.858,-3.8579 5.1739,-3.19768 9.9828,-2.13554 13.1797,2.911 3.8273,6.04176 11.428,30.01658 14.2805,45.04478 5.2366,27.58908 2.3651,67.42625 -7.2092,100.01472 -7.8156,26.60262 -12.6917,38.89018 -25.6329,64.59426 -11.074,21.99542 -27.0968,51.37767 -29.6686,54.40574 -2.9643,3.49013 -8.5888,2.8322 -16.19175,-1.89406 -4.74193,-2.94774 -8.97029,-4.40732 -13.96877,-4.82184 -8.29483,-0.68786 -6.19849,-2.53793 -23.09569,20.38256 -34.94268,47.39863 -71.73917,81.70086 -118.97895,110.91396 -12.82894,7.9334 -46.4935,25.2005 -55.99999,28.7233 -4.03334,1.4946 -7.97014,3.2171 -8.74843,3.8279 -1.68971,1.326 -27.75664,10.6252 -73.15993,26.0993 -40.54611,13.8188 -51.44147,19.103 -65.33384,31.687 -2.88321,2.6117 -6.55692,4.7485 -8.1638,4.7485 -1.60687,0 -6.81051,-3.1876 -11.56364,-7.0837 z m 26.51776,-794.2017 -15.78521,-26.54825 12.99593,-21.74981 c 7.14776,-11.9624 14.55111,-24.14981 16.45188,-27.08315 l 3.45595,-5.33333 0.66666,10.66667 0.66667,10.66666 h 37.33333 c 33.61235,0 37.77759,-0.24236 41.79057,-2.43165 2.45148,-1.3374 4.78423,-2.10465 5.18388,-1.705 1.3329,1.33288 -36.07453,65.02568 -39.51794,67.2863 -2.58707,1.69844 -7.93306,2.33183 -24.05801,2.85035 l -20.73183,0.66667 -0.39175,9.66666 c -0.21545,5.31667 -0.81545,9.6508 -1.33333,9.6314 -0.51787,-0.0193 -8.04493,-11.98198 -16.7268,-26.58352 z m -98.22341,5.373 c -10.5448,-3.20758 -18.92467,-11.1909 -21.41687,-20.40337 -3.11746,-11.52377 0.0244,-23.73586 10.2908,-39.99884 l 3.16815,-5.01866 h 35.3166 35.31661 v 33.33333 33.33333 l -29.66667,-0.11467 c -16.31666,-0.0631 -31.17054,-0.57206 -33.00862,-1.13118 z m -51.95941,-64.44514 c -22.04091,-37.99709 -21.64138,-35.21295 -8.37563,-58.36625 5.17509,-9.03234 9.15095,-17.09559 8.83521,-17.91836 -0.31572,-0.82278 -3.85338,-3.26486 -7.86146,-5.42687 -4.00808,-2.162 -7.28952,-4.30355 -7.29208,-4.75897 -0.009,-1.60624 60.55645,-2.25028 62.26772,-0.66214 2.9263,2.71576 29.71862,52.14903 28.48927,52.56427 -0.66339,0.22409 -4.60174,-1.50891 -8.75186,-3.85109 -6.36556,-3.59251 -7.80796,-3.96902 -9.22265,-2.40743 -1.73499,1.91516 -25.90323,43.4864 -32.02922,55.09272 -1.90869,3.61623 -3.83674,8.86623 -4.28456,11.66667 -0.4478,2.80045 -1.4875,5.0808 -2.31045,5.06745 -0.82293,-0.0133 -9.58187,-13.96335 -19.46429,-31 z m 212.49159,-9.99615 c -1.19948,-0.79584 -28.06193,-46.44536 -33.67213,-57.22177 -1.4398,-2.76564 -0.2508,-3.62579 24.15044,-17.47119 14.11564,-8.00929 26.99921,-15.26307 28.63016,-16.11953 3.50365,-1.83984 3.11652,-2.37677 21.6221,29.9876 11.96292,20.92193 12.0792,21.21261 12.0792,30.19629 0,6.92468 -0.75461,10.55906 -3.18921,15.36 -6.33269,12.48782 -14.19388,16.22668 -34.14412,16.23932 -7.7,0.005 -14.6644,-0.43194 -15.47644,-0.97072 z m -153.6777,-95.60427 c -14.20145,-8.31171 -26.6546,-15.94596 -27.67367,-16.96502 -1.58154,-1.58156 0.21124,-5.45633 12.24484,-26.4649 7.75372,-13.53663 15.9905,-26.5785 18.30396,-28.98193 4.236,-4.400735 14.07179,-8.296793 20.94568,-8.296793 1.9338,0 6.65796,0.933063 10.49813,2.073474 8.75628,2.600339 14.9285,8.666989 22.58711,22.200839 l 5.75191,10.16443 -2.63763,5.11396 c -6.00287,11.63866 -32.05721,55.7264 -33.08616,55.98657 -0.61235,0.15486 -12.73273,-6.51894 -26.93417,-14.83063 z m 74.48748,0.0103 c 0,-0.33792 3.59288,-2.58792 7.98417,-5 4.39131,-2.41208 7.98999,-5.2856 7.99708,-6.3856 0.0227,-3.51765 -32.04085,-57.79297 -37.44443,-63.3838 -2.86192,-2.961093 -5.20349,-5.811093 -5.20349,-6.333335 0,-0.522242 17.01908,-0.949531 37.82019,-0.949531 35.73341,0 38.00624,0.146349 41.19216,2.652393 1.85458,1.458816 7.3767,9.548873 12.27138,17.977903 4.89468,8.42904 9.46545,15.67535 10.15728,16.10292 0.69183,0.42757 4.58621,-1.12689 8.6542,-3.45436 4.06799,-2.32746 7.73,-3.89809 8.1378,-3.49028 0.67692,0.67692 -18.36835,36.02057 -25.79957,47.87809 l -3.13356,5 h -31.3166 c -17.22415,0 -31.31661,-0.27648 -31.31661,-0.6144 z"
         id="path281" />
      <path
         style="fill:#325366;stroke-width:1.33333"
         d="m 612.66665,1135.3394 c -10.83067,-9.5711 -29.29053,-18.1692 -65.33333,-30.4303 -61.80416,-21.0247 -75.98987,-26.5444 -103.33333,-40.2072 -42.49068,-21.2314 -72.65437,-42.792 -105.44247,-75.36859 -22.13102,-21.98828 -38.78393,-41.61647 -52.8847,-62.33333 l -7.48707,-11 -8.09288,0.0219 c -6.21606,0.0168 -9.32973,0.77828 -13.42621,3.28334 -15.04589,9.20073 -15.30701,9.0535 -29.13081,-16.42494 -28.59103,-52.69562 -39.13866,-78.07136 -46.82013,-112.64095 -5.17471,-23.2882 -6.40759,-36.43168 -5.71306,-60.90598 0.63951,-22.53586 2.0227,-30.9672 8.32342,-50.73638 5.40294,-16.95233 8.17861,-22.42183 11.84573,-23.34221 5.65694,-1.4198 8.30478,0.45986 20.39068,14.47505 58.35058,67.66522 121.27539,115.72449 174.79485,133.50081 6.81084,2.26219 9.64265,5.02309 9.64265,9.40119 0,1.17724 -3.85191,6.24173 -8.5598,11.25442 -9.71965,10.34895 -14.13445,18.24548 -17.27657,30.90179 -2.26231,9.11244 -2.01662,13.3162 1.41853,24.27062 3.39364,10.82204 8.50739,18.50114 19.71693,29.60804 22.59507,22.38818 62.52547,43.50307 97.36757,51.48724 13.14596,3.01244 19.54574,3.10287 31.24666,0.44156 10.40448,-2.36645 18.01504,-7.91821 23.36008,-17.04075 7.43002,-12.68105 7.30568,-10.80567 10.71164,-161.55471 6.51641,-288.41906 6.62149,-294.99594 4.74906,-297.25206 -1.54682,-1.86383 -17.58272,-2.08127 -153.48842,-2.08127 H 257.48454 l -2.07561,-2.96334 c -1.78306,-2.54567 -2.0756,-9.57208 -2.0756,-49.85228 0,-44.18 0.14725,-47.0708 2.54886,-50.03667 l 2.54887,-3.1477 363.78446,-0.0405 363.78445,-0.0405 2.78611,2.766 c 2.45109,2.4334 2.87249,4.84321 3.50452,20.04051 0.39512,9.50097 0.61396,30.54272 0.48629,46.75943 -0.20018,25.43184 -0.54869,29.96815 -2.53524,33 l -2.30316,3.51512 H 836.1325 c -124.42605,0 -152.07053,0.31875 -153.27268,1.76724 -1.86476,2.2469 -1.33296,39.41892 3.7802,264.23276 2.16826,95.33333 4.51561,175.43333 5.21633,177.99999 3.17108,11.61526 4.41843,14.64591 8.14539,19.79083 7.24736,10.00469 20.55017,16.15729 35.01236,16.19334 14.91748,0.0372 41.78543,-8.3024 66.59371,-20.67014 49.33602,-24.59564 76.23878,-57.15107 70.41397,-85.20899 -2.5317,-12.19516 -9.60715,-25.01424 -18.56308,-33.63205 -11.14103,-10.7204 -10.75131,-15.83409 1.51726,-19.90905 C 908.5518,785.43554 970.88291,737.8457 1029.9602,669.63 c 18.7863,-21.69231 22.0722,-20.89611 31.7911,7.70332 7.1487,21.03626 9.5478,36.00579 9.4021,58.66666 -0.068,10.63333 -0.5336,21.73333 -1.0341,24.66667 -0.5004,2.93333 -1.8506,11.03333 -3.0004,18 -4.2646,25.83892 -15.089,57.52318 -29.6083,86.66666 -17.305,34.73524 -31.0958,58.67907 -34.2534,59.47157 -2.0775,0.52142 -5.81271,-0.77017 -11.62083,-4.01825 -6.9973,-3.91312 -9.92938,-4.78665 -16.06668,-4.78665 h -7.50734 l -13.11504,17.66666 c -28.41491,38.2764 -55.51237,66.48016 -86.28067,89.80336 -11.62618,8.8129 -33.39398,23.1407 -45.70522,30.0835 -31.76639,17.9144 -63.40817,30.9007 -128.13795,52.59 -33.55398,11.243 -49.54283,18.7653 -60.77126,28.5911 -9.56561,8.3706 -12.50383,8.4537 -21.38556,0.6048 z m 26.33333,-794.04501 c -8.25,-13.79604 -15,-25.68733 -15,-26.42509 0,-2.61755 29.6478,-50.83233 30.81412,-50.11151 0.65223,0.40311 1.18588,4.59751 1.18588,9.3209 v 8.58797 l 36.33333,-0.0585 c 27.77271,-0.0447 37.57791,-0.50182 41.61563,-1.93994 2.90525,-1.03477 5.52048,-1.64322 5.8116,-1.3521 0.71211,0.7121 -32.87221,59.26773 -36.03037,62.82041 -3.92846,4.41921 -11.37174,5.86349 -30.21821,5.86349 h -17.51198 v 8.58797 c 0,4.72339 -0.45,8.85847 -1,9.18907 -0.55,0.33059 -7.75,-10.6866 -16,-24.48264 z m -100.10299,4.17889 c -14.24723,-4.94749 -23.05751,-18.86409 -20.92886,-33.05895 1.23344,-8.2252 12.44906,-29.63976 15.97411,-30.50022 1.49843,-0.36576 17.42441,-0.49606 35.39108,-0.28957 l 32.66666,0.37545 v 32.66667 32.66666 l -28,0.30327 c -24.30978,0.26331 -28.93611,-0.0217 -35.10299,-2.16331 z m -49.65434,-62.37133 c -22.30737,-38.12666 -22.06712,-36.5251 -8.88684,-59.24142 4.93763,-8.51006 8.97751,-16.3311 8.97751,-17.38011 0,-1.04901 -3.27655,-3.67971 -7.2812,-5.84599 -4.00467,-2.16628 -6.85467,-4.34636 -6.33333,-4.8446 1.07614,-1.0285 58.44262,-2.09166 59.38012,-1.10048 1.78292,1.885 28.6544,51.3351 28.16289,51.8266 -0.31999,0.31999 -3.51599,-1.0152 -7.10224,-2.96708 -3.58624,-1.95188 -7.39399,-3.54888 -8.46164,-3.54888 -1.11332,0 -7.96752,10.39618 -16.07175,24.377 -18.15605,31.32152 -22.28818,39.23983 -22.31326,42.7584 -0.0625,8.78 -2.76479,5.5442 -20.07026,-24.03344 z m 211.81678,-11.43529 c -1.87325,-1.47485 -31.95378,-52.56725 -33.83481,-57.46912 -0.53342,-1.39009 6.82819,-6.22099 26.50669,-17.39441 14.98488,-8.50839 27.77551,-15.45319 28.42362,-15.43289 1.16696,0.0365 14.58022,22.63906 25.51172,42.98943 6.63936,12.36004 7.40138,20.34536 2.89212,30.30699 -6.02902,13.31893 -16.25291,18.66667 -35.6873,18.66667 -7.33822,0 -12.48377,-0.62091 -13.81204,-1.66667 z M 544.99999,174.93792 c -14.48334,-8.51951 -26.32894,-16.1158 -26.32355,-16.88064 0.0205,-2.91558 27.07873,-48.28754 31.55951,-52.91985 3.33268,-3.44539 7.00842,-5.509301 12.61196,-7.081575 7.35905,-2.064846 8.43794,-2.066151 15.53026,-0.0188 4.192,1.210109 9.54915,3.660065 11.90477,5.444335 4.52531,3.4277 17.71974,23.6363 17.71319,27.12953 -0.005,3.1887 -32.88636,59.3617 -34.88813,59.60305 -0.97607,0.11773 -13.62468,-6.75654 -28.10801,-15.27605 z m 79.84165,1.34521 c -0.35699,-0.5776 2.28613,-2.70015 5.87357,-4.71675 3.58744,-2.0166 6.86863,-4.22638 7.29152,-4.91064 0.9678,-1.56592 -0.4454,-4.28704 -18.34449,-35.32241 -8.03582,-13.93333 -16.65939,-27.47113 -19.16352,-30.08399 -2.50414,-2.612861 -4.14078,-5.162861 -3.63696,-5.666667 1.69468,-1.694683 70.70082,-1.058133 74.53213,0.687527 2.403,1.094883 6.69547,7.01608 13.53207,18.66667 C 690.96542,125.22902 695.7641,132 697.01883,132 c 1.14411,0 4.73002,-1.5529 7.96868,-3.45088 3.23867,-1.89799 6.20142,-3.13795 6.5839,-2.75547 0.83853,0.83852 -26.02865,49.12351 -28.11039,50.51927 -1.97576,1.32468 -57.7998,1.29632 -58.61938,-0.0297 z"
         id="path279" />
      <path
         style="fill:#27495d;stroke-width:1.33333"
         d="m 613.03034,1134.2496 c -4.75313,-3.8961 -13.37942,-9.5438 -19.16953,-12.5505 -11.40381,-5.9219 -15.70588,-7.5266 -59.86082,-22.3293 -16.13334,-5.4086 -31.13334,-10.5668 -33.33334,-11.4627 -2.2,-0.8958 -7.6,-2.9897 -12,-4.6531 -20.53853,-7.7644 -51.90097,-22.4625 -65.33333,-30.6188 -2.93333,-1.7811 -7.57781,-4.4621 -10.32108,-5.9577 -12.22764,-6.6663 -46.09388,-31.0443 -51.01225,-36.7202 -0.73333,-0.8462 -5.83333,-5.6708 -11.33333,-10.72114 -24.1489,-22.17468 -49.41551,-51.0486 -65.54497,-74.90285 l -6.5363,-9.66667 -7.62602,0.0293 c -7.36628,0.0283 -13.01591,1.98749 -21.71843,7.53165 -6.43456,4.09928 -9.15463,1.89311 -17.90761,-14.52428 -30.71526,-57.61064 -41.99347,-83.58153 -47.92967,-110.37004 -1.21877,-5.5 -3.38318,-14.92829 -4.8098,-20.95174 C 176.45744,767.36123 176,760.52782 176,737.63389 c 0,-26.5346 0.18181,-28.50592 4.00662,-43.4418 4.92735,-19.24125 11.39901,-36.34539 14.1516,-37.40167 5.33208,-2.0461 8.18575,-0.63701 15.27573,7.5429 30.94763,35.70506 68.80372,72.57607 94.44982,91.99206 27.42343,20.76157 54.51125,36.31548 78.12513,44.85969 12.7669,4.61946 16.65776,7.15836 16.65776,10.86971 0,1.26949 -3.46631,5.90606 -7.7029,10.30348 -25.14904,26.10373 -24.86056,58.28709 0.76167,84.97505 12.33001,12.84287 25.07156,21.66929 49.60789,34.36474 36.16432,18.71196 65.53877,25.11938 86.55129,18.87934 12.90503,-3.83239 23.68378,-17.27815 26.64996,-33.24408 0.68122,-3.66667 1.59544,-35.76667 2.03164,-71.33333 0.43619,-35.56667 1.37466,-68.26667 2.08548,-72.66667 1.36464,-8.44718 5.28818,-193.97134 5.50911,-260.49808 0.1052,-31.66324 -0.21701,-39.38467 -1.68204,-40.31291 -0.99665,-0.63149 -69.98864,-1.15736 -153.31552,-1.16859 -139.28595,-0.0188 -151.65097,-0.19822 -153.33333,-2.22533 -1.47509,-1.7774 -1.82992,-11.36604 -1.82992,-49.45114 v -47.24622 l 3.14771,-2.54885 c 3.082,-2.49565 10.72643,-2.54887 366.12668,-2.54887 h 362.97895 l 2.53999,2.80666 c 2.39661,2.64822 2.53999,5.45893 2.53999,49.79506 0,37.86661 -0.35524,47.41647 -1.82992,49.19336 -1.68258,2.02737 -14.04875,2.20492 -153.57144,2.20492 -171.38489,0 -156.76414,-0.99041 -155.40371,10.52704 0.66638,5.64155 4.39778,188.7021 7.32729,359.47295 l 1.21225,70.66667 3.59105,11.2119 c 3.06602,9.57265 4.61614,12.237 10.60227,18.22313 8.53993,8.53994 16.26432,11.23163 32.23148,11.23163 17.43663,0 38.51881,-5.90409 61.84073,-17.31856 29.37483,-14.37694 47.20424,-27.04309 62.25776,-44.22836 5.11316,-5.83725 12.60496,-22.40721 13.73016,-30.36764 1.44792,-10.2435 -0.26703,-18.3793 -6.65684,-31.58065 -4.02749,-8.3208 -7.105,-12.56037 -12.64364,-17.41789 -11.80187,-10.35055 -10.27879,-13.367 10.64589,-21.08409 23.29356,-8.59075 50.95675,-24.40406 75.24811,-43.01466 11.41485,-8.74538 14.22266,-11.11148 31.52337,-26.56429 14.084,-12.57968 47.97288,-47.22734 61.22848,-62.59949 9.8686,-11.4442 11.1244,-12.49103 14.9853,-12.49103 2.7104,0 4.3736,1.03271 5.905,3.66667 4.1383,7.11761 11.844,30.90922 13.9954,43.21125 2.6225,14.99604 3.8106,47.96108 1.9626,54.45541 -0.7304,2.56667 -2.0265,10.62682 -2.8802,17.91144 -1.6733,14.27772 -9.1298,41.57637 -15.3204,56.08856 -0.9384,2.2 -3.5759,8.53436 -5.8611,14.07635 -4.3094,10.45132 -17.3002,36.1196 -31.8974,63.0257 -7.7382,14.2632 -8.7629,15.56462 -12.2547,15.56462 -2.09573,0 -4.21935,-0.66167 -4.71915,-1.47038 -2.06087,-3.33456 -14.65598,-7.83704 -21.95918,-7.84993 l -7.37718,-0.0133 -9.19355,12.93377 c -12.98837,18.27246 -33.6966,43.71245 -42.9006,52.70324 -4.29997,4.20036 -8.50061,8.40036 -9.33477,9.33333 -1.94885,2.17976 -17.27093,16.15529 -22.48336,20.50749 -13.88123,11.5904 -20.15391,16.3647 -32.32936,24.6067 -7.51448,5.0868 -13.9344,9.2488 -14.26649,9.2488 -0.33208,0 -3.18388,1.7288 -6.33731,3.8418 -6.62337,4.4381 -45.54225,24.6221 -50.43856,26.1584 -1.81221,0.5686 -6.29494,2.3753 -9.96161,4.0149 -10.90228,4.8752 -53.78627,20.3171 -74,26.6464 -35.10697,10.9926 -51.70713,19.0311 -65.90886,31.9157 -2.88322,2.6159 -5.95692,4.7561 -6.83047,4.7561 -0.87353,0 -5.47717,-3.1877 -10.23031,-7.0838 z M 949.79909,772.70935 c 0.85492,-2.22789 -1.1315,-3.94602 -3.13245,-2.70937 -1.99352,1.23207 -1.60785,4.66667 0.52401,4.66667 1.02155,0 2.19534,-0.88079 2.60844,-1.9573 z M 639.57562,340.0001 c -7.9334,-13.23854 -14.2334,-24.85834 -14,-25.8218 0.2334,-0.96345 6.72436,-12.31041 14.42436,-25.21545 l 14,-23.46372 0.66667,8.91709 0.66667,8.91711 h 38.66666 c 30.40593,0 39.35735,-0.39272 41.8996,-1.83824 l 3.23293,-1.83824 -2.65457,4.5049 c -1.46003,2.4777 -9.49092,16.4237 -17.84645,30.99109 -8.63892,15.06146 -16.62452,27.42672 -18.5132,28.66667 -2.58114,1.69455 -7.94159,2.32905 -24.05315,2.84715 l -20.73182,0.66666 -0.66667,8.36842 -0.66667,8.36842 z m -98.25093,5.42077 c -10.54737,-3.20836 -18.92844,-11.19449 -21.41237,-20.40337 -2.42824,-9.00242 -0.71612,-17.20749 6.35004,-30.43165 l 6.36887,-11.91919 h 34.35103 34.35106 v 32 32 l -28.33334,-0.11467 c -15.58333,-0.0631 -29.83721,-0.57207 -31.67529,-1.13119 z m -51.93586,-64.58444 c -13.36608,-23.0327 -17.86447,-31.91816 -17.77539,-35.11086 0.0753,-2.69735 3.61216,-10.38094 9.58624,-20.82527 5.20684,-9.10297 9.46697,-17.47995 9.46697,-18.61552 0,-1.13557 -3.15,-3.90096 -7,-6.14532 l -7,-4.08064 20.80442,-0.0295 c 11.44242,-0.0161 24.34242,-0.3853 28.66666,-0.82028 l 7.86226,-0.79086 13.66666,24.70093 c 7.51667,13.58552 13.66667,24.97627 13.66667,25.31279 0,0.3365 -2.89023,-0.92934 -6.42273,-2.813 -3.53251,-1.88366 -7.33712,-3.07395 -8.45471,-2.6451 -1.11757,0.42886 -4.71489,5.48518 -7.99404,11.23626 -3.27913,5.75108 -10.87273,18.9515 -16.87467,29.33425 -6.00193,10.38276 -11.6756,21.85916 -12.60814,25.50312 l -1.69556,6.62537 -17.89464,-30.83645 z m 196.02126,-36.81217 c -8.87801,-15.38664 -16.42391,-28.73664 -16.76865,-29.66667 -0.39828,-1.07444 9.25134,-7.30032 26.46702,-17.07638 l 27.09383,-15.38544 3.43393,6.05211 c 1.88867,3.32866 8.59315,15.04485 14.89885,26.03597 10.76595,18.76554 11.46491,20.45312 11.46491,27.6812 0,13.6803 -7.98541,25.24442 -19.89637,28.81304 -2.79383,0.83705 -10.81088,1.5219 -17.81568,1.5219 h -12.73602 z m -140.22752,-70.32972 -26.15074,-15.3679 13.92812,-24.16332 c 7.66046,-13.28983 15.81954,-26.13763 18.1313,-28.55066 6.02634,-6.290351 16.37416,-9.121693 25.70543,-7.033448 10.35596,2.317558 16.21217,7.323708 24.08897,20.592258 l 6.88565,11.59899 -14.03393,24.28143 c -7.71868,13.3548 -15.31723,26.52681 -16.88567,29.27117 -1.56845,2.74435 -3.45172,4.9334 -4.18505,4.86456 -0.73333,-0.0688 -13.10117,-7.04073 -27.48408,-15.49308 z m 86.15075,-1.06266 c 2.93333,-1.80668 5.78333,-3.28796 6.33333,-3.29172 0.55,-0.004 0.99868,-1.65683 0.99707,-3.6735 -0.004,-4.66818 -30.44571,-57.77808 -37.06619,-64.66666 l -4.80541,-5.000003 h 36.68585 c 34.08013,0 36.87721,0.178288 39.38013,2.510107 1.48186,1.38056 6.76952,9.527986 11.75036,18.105396 4.98084,8.57741 9.99931,15.95724 11.15216,16.39964 1.15285,0.44239 5.00764,-0.82122 8.56617,-2.80803 l 6.47008,-3.61238 -5.06512,9.09997 c -2.7858,5.00499 -8.9651,16.11486 -13.73177,24.6886 l -8.66666,15.58862 -28.66667,-0.0276 -28.66667,-0.0276 5.33334,-3.2849 z"
         id="path277" />
    </g>
  </g>
</svg>
